<?xml version="1.0" encoding="iso-8859-1"?>
<!-- Generator: Adobe Illustrator 16.0.0, SVG Export Plug-In . SVG Version: 6.00 Build 0)  -->
<!DOCTYPE svg PUBLIC "-//W3C//DTD SVG 1.1//EN" "http://www.w3.org/Graphics/SVG/1.1/DTD/svg11.dtd">
<svg version="1.1" id="Capa_1" xmlns="http://www.w3.org/2000/svg" xmlns:xlink="http://www.w3.org/1999/xlink" x="0px" y="0px"
	 width="612px" height="612px" viewBox="0 0 612 612" style="enable-background:new 0 0 612 612;" xml:space="preserve">
<g>
	<g>
		<path d="M473.493,441.697l41.394-48.57h27.567C612,393.127,612,323.303,612,323.303V156.394c0,0,0-69.545-69.546-69.545H264.273
			c-69.546,0-69.546,69.49-69.546,69.49l157.813,0.056c78.308,0,78.308,78.058,78.308,78.058v158.675L473.493,441.697z"/>
		<path d="M0,239.793v166.965c0,0,0,69.823,69.545,69.823h14.326l49.043,48.57l48.015-48.57h166.798
			c69.545,0,69.545-69.823,69.545-69.823V239.849c0,0,0-69.546-69.545-69.546H69.545C0,170.303,0,239.793,0,239.793z"/>
	</g>
</g>
<g>
</g>
<g>
</g>
<g>
</g>
<g>
</g>
<g>
</g>
<g>
</g>
<g>
</g>
<g>
</g>
<g>
</g>
<g>
</g>
<g>
</g>
<g>
</g>
<g>
</g>
<g>
</g>
<g>
</g>
</svg>
